<svg xmlns="http://www.w3.org/2000/svg" viewBox="0 0 512 512">
  <defs>
    <linearGradient id="whistleGrad" x1="0%" y1="0%" x2="100%" y2="100%">
      <stop offset="0%" style="stop-color:#22c55e;stop-opacity:1" />
      <stop offset="100%" style="stop-color:#16a34a;stop-opacity:1" />
    </linearGradient>
  </defs>
  <circle cx="256" cy="256" r="240" fill="#0f172a"/>
  <g transform="translate(100, 140) scale(1.3)">
    <path fill="url(#whistleGrad)" d="M200,80 C220,80 240,95 240,120 L240,140 C240,150 235,158 228,162 L228,180 L212,180 L212,162 C205,158 200,150 200,140 L200,120 C200,110 195,105 190,105 L60,105 C40,105 20,120 20,145 C20,170 40,185 60,185 L150,185 L150,175 L170,175 L170,195 L60,195 C30,195 0,170 0,140 C0,110 30,85 60,95 L190,95 C195,85 197,80 200,80 Z"/>
    <circle cx="50" cy="145" r="15" fill="#0f172a"/>
    <ellipse cx="140" cy="145" rx="30" ry="25" fill="#16a34a"/>
  </g>
</svg>
